<?xml version="1.0" encoding="UTF-8" standalone="no"?>
<!DOCTYPE svg PUBLIC "-//W3C//DTD SVG 1.1//EN"
 "http://www.w3.org/Graphics/SVG/1.1/DTD/svg11.dtd">
<!-- Generated by graphviz version 2.38.0 (20140413.2041)
 -->
<!-- Title: models_diagram Pages: 1 -->
<svg width="454pt" height="158pt"
 viewBox="0.00 0.00 454.35 158.00" xmlns="http://www.w3.org/2000/svg" xmlns:xlink="http://www.w3.org/1999/xlink">
<g id="graph0" class="graph" transform="scale(1 1) rotate(0) translate(4 154)">
<title>models_diagram</title>
<polygon fill="none" stroke="none" points="-4,4 -4,-154 450.345,-154 450.345,4 -4,4"/>
<!-- _diagram_info -->
<g id="node1" class="node"><title>_diagram_info</title>
<text text-anchor="start" x="8" y="-135.6" font-family="Times,serif" font-size="13.00">Models diagram</text>
<text text-anchor="start" x="8" y="-121.6" font-family="Times,serif" font-size="13.00">Date: Jul 11 2016 &#45; 19:43</text>
<text text-anchor="start" x="8" y="-107.6" font-family="Times,serif" font-size="13.00">Migration version: 20160708022507</text>
<text text-anchor="start" x="8" y="-93.6" font-family="Times,serif" font-size="13.00">Generated by RailRoady 1.5.1</text>
<text text-anchor="start" x="8" y="-79.6" font-family="Times,serif" font-size="13.00">http://railroady.prestonlee.com</text>
</g>
<!-- Operacion -->
<g id="node2" class="node"><title>Operacion</title>
<ellipse fill="none" stroke="black" cx="279" cy="-111" rx="47.3916" ry="18"/>
<text text-anchor="middle" x="279" y="-107.3" font-family="Times,serif" font-size="14.00">Operacion</text>
</g>
<!-- Inventario -->
<g id="node4" class="node"><title>Inventario</title>
<ellipse fill="none" stroke="black" cx="279" cy="-18" rx="46.5926" ry="18"/>
<text text-anchor="middle" x="279" y="-14.3" font-family="Times,serif" font-size="14.00">Inventario</text>
</g>
<!-- Operacion&#45;&gt;Inventario -->
<g id="edge1" class="edge"><title>Operacion&#45;&gt;Inventario</title>
<path fill="none" stroke="#4d8a22" d="M279,-84.7285C279,-72.1184 279,-56.9054 279,-44.2924"/>
<ellipse fill="none" stroke="#4d8a22" cx="279" cy="-88.8836" rx="4" ry="4"/>
<ellipse fill="#4d8a22" stroke="#4d8a22" cx="279" cy="-40.0397" rx="4" ry="4"/>
</g>
<!-- Trabajador -->
<g id="node3" class="node"><title>Trabajador</title>
<ellipse fill="none" stroke="black" cx="395" cy="-111" rx="49.2915" ry="18"/>
<text text-anchor="middle" x="395" y="-107.3" font-family="Times,serif" font-size="14.00">Trabajador</text>
</g>
<!-- Operacione -->
<g id="node5" class="node"><title>Operacione</title>
<ellipse fill="none" stroke="black" cx="395" cy="-18" rx="51.1914" ry="18"/>
<text text-anchor="middle" x="395" y="-14.3" font-family="Times,serif" font-size="14.00">Operacione</text>
</g>
<!-- Trabajador&#45;&gt;Operacione -->
<g id="edge2" class="edge"><title>Trabajador&#45;&gt;Operacione</title>
<path fill="none" stroke="#05ec81" d="M395,-84.7285C395,-72.7246 395,-58.3622 395,-46.1291"/>
<ellipse fill="none" stroke="#05ec81" cx="395" cy="-88.8836" rx="4" ry="4"/>
<polygon fill="#05ec81" stroke="#05ec81" points="395,-46.0397 399.5,-36.0396 395,-41.0397 395,-36.0397 395,-36.0397 395,-36.0397 395,-41.0397 390.5,-36.0397 395,-46.0397 395,-46.0397"/>
</g>
</g>
</svg>
