<?xml version="1.0" encoding="UTF-8" standalone="no"?>
<!DOCTYPE svg PUBLIC "-//W3C//DTD SVG 1.1//EN"
 "http://www.w3.org/Graphics/SVG/1.1/DTD/svg11.dtd">
<!-- Generated by graphviz version 2.38.0 (20140413.2041)
 -->
<!-- Title: models_diagram Pages: 1 -->
<svg width="746pt" height="288pt"
 viewBox="0.00 0.00 746.00 288.00" xmlns="http://www.w3.org/2000/svg" xmlns:xlink="http://www.w3.org/1999/xlink">
<g id="graph0" class="graph" transform="scale(1 1) rotate(0) translate(4 284)">
<title>models_diagram</title>
<polygon fill="none" stroke="none" points="-4,4 -4,-284 742,-284 742,4 -4,4"/>
<!-- _diagram_info -->
<g id="node1" class="node"><title>_diagram_info</title>
<text text-anchor="start" x="8" y="-251.1" font-family="Times,serif" font-size="13.00">Models diagram</text>
<text text-anchor="start" x="8" y="-237.1" font-family="Times,serif" font-size="13.00">Date: Jul 11 2016 &#45; 19:43</text>
<text text-anchor="start" x="8" y="-223.1" font-family="Times,serif" font-size="13.00">Migration version: 20160708022507</text>
<text text-anchor="start" x="8" y="-209.1" font-family="Times,serif" font-size="13.00">Generated by RailRoady 1.5.1</text>
<text text-anchor="start" x="8" y="-195.1" font-family="Times,serif" font-size="13.00">http://railroady.prestonlee.com</text>
</g>
<!-- Operacion -->
<g id="node2" class="node"><title>Operacion</title>
<path fill="none" stroke="black" d="M244,-181C244,-181 464,-181 464,-181 470,-181 476,-187 476,-193 476,-193 476,-260 476,-260 476,-266 470,-272 464,-272 464,-272 244,-272 244,-272 238,-272 232,-266 232,-260 232,-260 232,-193 232,-193 232,-187 238,-181 244,-181"/>
<text text-anchor="middle" x="354" y="-256.8" font-family="Times,serif" font-size="14.00">Operacion</text>
<polyline fill="none" stroke="black" points="232,-249 476,-249 "/>
<text text-anchor="start" x="240" y="-233.8" font-family="Times,serif" font-size="14.00">id :integer</text>
<text text-anchor="start" x="240" y="-218.8" font-family="Times,serif" font-size="14.00">trabajador_id :integer</text>
<text text-anchor="start" x="240" y="-203.8" font-family="Times,serif" font-size="14.00">created_at :timestamp without time zone</text>
<text text-anchor="start" x="240" y="-188.8" font-family="Times,serif" font-size="14.00">updated_at :timestamp without time zone</text>
</g>
<!-- Inventario -->
<g id="node4" class="node"><title>Inventario</title>
<path fill="none" stroke="black" d="M244,-0.5C244,-0.5 464,-0.5 464,-0.5 470,-0.5 476,-6.5 476,-12.5 476,-12.5 476,-124.5 476,-124.5 476,-130.5 470,-136.5 464,-136.5 464,-136.5 244,-136.5 244,-136.5 238,-136.5 232,-130.5 232,-124.5 232,-124.5 232,-12.5 232,-12.5 232,-6.5 238,-0.5 244,-0.5"/>
<text text-anchor="middle" x="354" y="-121.3" font-family="Times,serif" font-size="14.00">Inventario</text>
<polyline fill="none" stroke="black" points="232,-113.5 476,-113.5 "/>
<text text-anchor="start" x="240" y="-98.3" font-family="Times,serif" font-size="14.00">id :integer</text>
<text text-anchor="start" x="240" y="-83.3" font-family="Times,serif" font-size="14.00">serie :integer</text>
<text text-anchor="start" x="240" y="-68.3" font-family="Times,serif" font-size="14.00">tamano :integer</text>
<text text-anchor="start" x="240" y="-53.3" font-family="Times,serif" font-size="14.00">descripcion :character varying</text>
<text text-anchor="start" x="240" y="-38.3" font-family="Times,serif" font-size="14.00">created_at :timestamp without time zone</text>
<text text-anchor="start" x="240" y="-23.3" font-family="Times,serif" font-size="14.00">updated_at :timestamp without time zone</text>
<text text-anchor="start" x="240" y="-8.3" font-family="Times,serif" font-size="14.00">operacion_id :integer</text>
</g>
<!-- Operacion&#45;&gt;Inventario -->
<g id="edge1" class="edge"><title>Operacion&#45;&gt;Inventario</title>
<path fill="none" stroke="#699163" d="M354,-172.547C354,-163.612 354,-154.187 354,-144.813"/>
<ellipse fill="none" stroke="#699163" cx="354" cy="-176.797" rx="4" ry="4"/>
<ellipse fill="#699163" stroke="#699163" cx="354" cy="-140.603" rx="4" ry="4"/>
</g>
<!-- Trabajador -->
<g id="node3" class="node"><title>Trabajador</title>
<path fill="none" stroke="black" d="M506,-173.5C506,-173.5 726,-173.5 726,-173.5 732,-173.5 738,-179.5 738,-185.5 738,-185.5 738,-267.5 738,-267.5 738,-273.5 732,-279.5 726,-279.5 726,-279.5 506,-279.5 506,-279.5 500,-279.5 494,-273.5 494,-267.5 494,-267.5 494,-185.5 494,-185.5 494,-179.5 500,-173.5 506,-173.5"/>
<text text-anchor="middle" x="616" y="-264.3" font-family="Times,serif" font-size="14.00">Trabajador</text>
<polyline fill="none" stroke="black" points="494,-256.5 738,-256.5 "/>
<text text-anchor="start" x="502" y="-241.3" font-family="Times,serif" font-size="14.00">id :integer</text>
<text text-anchor="start" x="502" y="-226.3" font-family="Times,serif" font-size="14.00">nombre :character varying</text>
<text text-anchor="start" x="502" y="-211.3" font-family="Times,serif" font-size="14.00">email :character varying</text>
<text text-anchor="start" x="502" y="-196.3" font-family="Times,serif" font-size="14.00">created_at :timestamp without time zone</text>
<text text-anchor="start" x="502" y="-181.3" font-family="Times,serif" font-size="14.00">updated_at :timestamp without time zone</text>
</g>
<!-- Operacione -->
<g id="node5" class="node"><title>Operacione</title>
<ellipse fill="none" stroke="black" cx="616" cy="-68.5" rx="51.1914" ry="18"/>
<text text-anchor="middle" x="616" y="-64.8" font-family="Times,serif" font-size="14.00">Operacione</text>
</g>
<!-- Trabajador&#45;&gt;Operacione -->
<g id="edge2" class="edge"><title>Trabajador&#45;&gt;Operacione</title>
<path fill="none" stroke="#a7cfc0" d="M616,-164.885C616,-141.333 616,-115.554 616,-96.7393"/>
<ellipse fill="none" stroke="#a7cfc0" cx="616" cy="-169.12" rx="4" ry="4"/>
<polygon fill="#a7cfc0" stroke="#a7cfc0" points="616,-96.536 620.5,-86.5359 616,-91.536 616,-86.536 616,-86.536 616,-86.536 616,-91.536 611.5,-86.536 616,-96.536 616,-96.536"/>
</g>
</g>
</svg>
